<svg id="Группа_1" data-name="Группа 1" xmlns="http://www.w3.org/2000/svg" width="462" height="100" viewBox="0 0 462 100">
  <metadata><?xpacket begin="﻿" id="W5M0MpCehiHzreSzNTczkc9d"?>
<x:xmpmeta xmlns:x="adobe:ns:meta/" x:xmptk="Adobe XMP Core 5.6-c142 79.160924, 2017/07/13-01:06:39        ">
   <rdf:RDF xmlns:rdf="http://www.w3.org/1999/02/22-rdf-syntax-ns#">
      <rdf:Description rdf:about=""/>
   </rdf:RDF>
</x:xmpmeta>
                                                                                                    
                                                                                                    
                                                                                                    
                                                                                                    
                                                                                                    
                                                                                                    
                                                                                                    
                                                                                                    
                                                                                                    
                                                                                                    
                                                                                                    
                                                                                                    
                                                                                                    
                                                                                                    
                                                                                                    
                                                                                                    
                                                                                                    
                                                                                                    
                                                                                                    
                                                                                                    
                           
<?xpacket end="w"?></metadata>
<defs>
    <style>
      .cls-1 {
        fill-rule: evenodd;
      }
    </style>
  </defs>
  <path id="Котовасия" class="cls-1" d="M106,26.547c-0.552,2.685-3.566,6.985-4.815,10.259-0.42,1.193-1.867,4.468-1.926,6.784-0.036,1.409.52,2.533,1.978,2.573,1.939,0.054,3.2-3.924,3.952-6.809,1.821-7.052,3.719-9.78,6.373-16.062,0.509-1.175,2.21-4.187,2.261-6.178a1.789,1.789,0,0,0-1.571-2.076c-1.916,0-4.774,2.758-5.961,3.9C95.115,29.718,84.2,46.4,73.5,59.971c-1.05,1.421-1.38,2.443-2.9,2.42,3.212-10.524,9.642-21.514,14.372-30.534,1.463-2.692,3.269-7.295,5.572-8.31,3.589-1.56,7.528-2.286,7.665-7.629,0.036-1.411-.91-2.672-3.161-2.792-5.021-.266-5.588,6.41-9.357,6.23-11.032-.528-14.173-8.711-21.428-9.1C55.891,9.8,53,25,52.845,30.938c-0.243,9.487,3.071,18.54,11.232,18.74,2.358,0.058,4.017-.83,7.622-2.384-2.644,7.864-11.653,27.066-11.81,33.179-0.035,1.347.455,2.383,1.8,2.383,1.749,0,2.938-2.375,3.9-3.818,2.336-3.393,8.539-15.465,11.062-15.429a3.069,3.069,0,0,0,1.919-.279c3.172-2.5,6.772-6.719,11.528-6.626,0.592,0.012.873,0.625,0.849,1.537-0.106,4.152-5.459,15.969-5.644,23.187-0.088,3.457,1.044,5.79,4.31,5.779,8.34-.029,16.928-10.062,22.928-16.113,1.565-1.578,4.671-4.227,4.716-6.013a1.89,1.89,0,0,0-1.568-1.711c-2.282-.034-3.905,3.73-5.561,4.908-6.213,5.948-13.788,13.26-18.2,13.257-0.886,0-1.262-.71-1.234-1.824,0.111-4.354,5.6-15.318,5.773-22.176,0.085-3.328-1.429-5.381-4.179-5.445-2.663-.062-6.569,1.476-10.215,3.64C85.4,50.2,90.909,44.05,94.074,39.693c1.525-2.072,3.147-4.237,4.86-6.292C100.54,31.548,103.485,26.539,106,26.547Zm-30.3,10.8c-0.689-.742-0.176-1.032-0.681-1.05a2.253,2.253,0,0,0-.407.089c-2.882,1.649-5.4,8.367-9.894,8.24-3.7-.1-7.2-5.089-7.008-12.569,0.237-9.245,2.827-17.332,6.535-17.145,3.79,0.191,6.72,9.3,19.143,8.618C80.794,27.2,78.238,32.828,75.7,37.349Zm63.628,9.192a2.829,2.829,0,0,0-3.011,2.851c-0.04,1.565,1.043,2.374,2.314,2.893a2.981,2.981,0,0,1,1.929,3.264c-0.219,8.577-10.532,22.969-18.657,22.944-2.354-.007-3.812-2.094-3.746-4.672a17.174,17.174,0,0,1,7.507-14.051c1.713-1.25,7.484-5.457,7.585-9.379,0.035-1.372-.5-1.976-1.337-2-1.2-.032-2.907,1.1-3.757,1.574-6,3.805-7.213,7.243-10.9,11.043-1.755,1.86-4.058,2.621-4.107,4.513-0.04,1.593.907,1.8,0.876,3-0.033,1.293-.65,3.079-0.7,4.97-0.11,4.279,1.175,9.852,6.665,9.848,12.507-.008,24.563-16.624,24.872-28.669C144.967,50.687,143.343,46.655,139.33,46.541Zm77.058-6.066c0.077-3.025-3.07-3.512-5.1-3.682s-4.081-.341-6.135-0.42c-8.45-.325-17.043.19-22.777,1.484-2.5.571-6.822,1.174-6.871,3.07a1.114,1.114,0,0,0,1.007,1.172c0.861,0.028,2.6-.482,6.377-0.922a113.617,113.617,0,0,1,16.453-.84c5.622,0.2,9.524,1.718,13.6,1.855C214.643,42.251,216.35,41.942,216.388,40.475ZM205.466,56.286c-0.181,3.882-2.241,7.087-3.742,10.867-0.977,2.587-3.26,7.491-3.355,11.21-0.065,2.51,1.214,4.462,3.367,4.462,2.639,0,6.068-2.492,7.4-3.5,3.567-2.563,8.96-8.025,11.929-11.1,1.725-1.8-.611-4.3-2.1-2.677-2.9,3.167-12.246,12.2-14.875,12.191-0.741,0-.72-0.836-0.708-1.3,0.069-2.685,2.447-8.768,3.842-11.983,1.3-2.84,3.038-6.864,3.116-9.9,0.054-2.118-.967-3.712-2.684-3.757a9.79,9.79,0,0,0-4.4,1.552c-3.622,2.419-5.687,5.073-8.513,7.814-1.289,1.284-5.963,6.267-5.319,4.213,1-2.982,2.3-7.357,2.384-10.817,0.083-3.273-1.3-5.371-4.082-5.45-6.126-.173-11.651,7.539-14.387,9.664a24.9,24.9,0,0,0,.544-4.357c0.1-3.891-.939-7.341-3.894-7.428a8.259,8.259,0,0,0-5.044,2.051c-5.31,3.983-11.317,12.522-15.994,16.313a1.853,1.853,0,1,0,2.54,2.646c7.59-7.206,13.927-16.842,16.815-16.672,0.96,0.025,1.277,1.272,1.238,2.8a23.636,23.636,0,0,1-1.108,5.791c-2.361,6.737-5.153,9.38-7.78,15.487a14.265,14.265,0,0,0-1.261,4.311,2.022,2.022,0,0,0,2.063,2.306c1.587,0,2.43-2.005,3.09-3.724a54.879,54.879,0,0,1,13.9-20.176c1.5-1.386,4.9-3.95,6.94-3.9,1.612,0.039,1.736,1.827,1.7,3.047-0.129,5.069-4.771,13.567-7.39,18.922a11.226,11.226,0,0,0-1.131,3.963,1.732,1.732,0,0,0,1.579,1.986c2.308,0,4.82-4.977,5.962-6.474,4.015-4.843,7.748-9.472,11.863-13.6C200.026,59.048,202.5,56.406,205.466,56.286Zm34.758-6.878a2.506,2.506,0,0,0-2.555,2.629,2.745,2.745,0,0,0,1.954,2.658,2.772,2.772,0,0,1,1.629,3c-0.2,7.895-8.963,21.146-15.835,21.124-1.989-.006-3.217-1.924-3.157-4.294A16.207,16.207,0,0,1,228.633,61.6c1.451-1.152,6.343-5.031,6.436-8.639,0.032-1.263-.424-1.816-1.128-1.835-1.02-.027-2.462,1.02-3.183,1.455-5.077,3.51-6.113,6.673-9.236,10.171-1.486,1.711-3.433,2.414-3.477,4.152-0.038,1.464.762,1.656,0.734,2.753-0.031,1.188-.555,2.83-0.6,4.568-0.1,3.932.974,9.053,5.612,9.051,10.58-.007,20.825-15.306,21.109-26.4C244.994,53.213,243.625,49.5,240.224,49.408ZM303.5,72.87c2.022-6,10.683-12.271,10.875-19.756,0.017-.673-0.108-1.1-1.129-1.126-3.828-.107-8.749,9.01-10.1,13.062a42.6,42.6,0,0,1-2.072,4.9c-1.25,2.542-4.89,5.244-7.472,7.111-0.863.6-4.611,2.988-6.963,2.982-1.144,0-2.41-.956-2.195-3.718,6.676-4.514,9.917-6.88,15.284-13.721,1.658-2.1,4.839-7.043,4.9-9.334,0.076-2.97-1.784-3.449-3.1-3.489-4.753-.141-10.965,5.264-13.548,8.82a35.922,35.922,0,0,0-5.724,10.787c-0.467,1.38-.521,3.458-1.268,4.491-0.824,1.121-4.041,2.23-6.956,2.213-2.489-.014-4.567-2.127-4.529-3.614,0.049-1.925,4.868-6.756,5.008-12.247,0.045-1.743-.125-3.665-1.954-3.707-5.153-.118-8.749,7.017-7.5,16.09-1.292,1.132-6.092,7.72-10.686,7.711-2.2,0-3.194-2.585-3.075-7.208,0.127-4.979,1.208-5.676,3.292-7.157,14.154-10.049,26.485-18.173,35.839-30.791,1.909-2.5,4.561-6.665,4.64-9.748,0.055-2.141-1.175-3.752-4.787-3.949-13.886-.759-32.08,21.272-38.655,35.817a48.723,48.723,0,0,0-4.416,17.49c-0.153,5.978,1.725,10.256,6.512,10.246,2.944-.006,8.6-4.156,12.733-9.064,1.537,0.622,1.98,3.515,6.682,3.528,2.263,0.006,4.762-1.029,6.645-1.023,1.373,0,2.075,3.556,3.271,4.594a4.461,4.461,0,0,0,3.336,1.291c3.135-.005,6.531-2.581,8.542-4.034,0.789-.6,3.658-3.148,5.284-3.906,0.146,2.47.4,6.045,3.944,6.045,6.4,0,12.6-8.219,17.239-13.2,1.309-1.4-.508-3.768-1.544-2.7-3.747,3.891-11.122,12.26-13.668,12.251-2.349-.008-2.871-1.283-2.806-3.831C303.387,74.4,303.407,73.633,303.5,72.87ZM291,26.423c-0.059,2.321-2.881,6.843-4.059,8.172-6.3,7.369-18.8,18.588-29.023,24.783-0.153.085-3.09,2.865-3.051,1.358,0.374-5.757,10.277-17.834,13.562-21.669C273.583,33.15,284.609,24.8,289.9,25.076A1.1,1.1,0,0,1,291,26.423Zm9.269,28.526c-0.107,4.174-7.518,11.051-9.835,12.993-0.872.763-3.208,2.974-4.28,2.963a0.657,0.657,0,0,1-.552-0.782c0.044-1.725,2.351-5.314,2.8-6.168,2.6-4.424,7.824-9.791,11.116-9.707A0.636,0.636,0,0,1,300.268,54.95Zm-29.587,5.562c0.587,0.012.8,0.365,0.781,1.064-0.047,1.835-2.062,5.829-2.873,5.818-0.443-.006-0.331-1.494-0.317-2.02C268.316,63.622,269.867,60.671,270.681,60.512Zm68.534-4.261c0.08-3.123-1.776-4.327-4.192-4.4-7.777-.223-16.506,11.178-16.734,20.057-0.145,5.7,2.163,10.22,6.645,10.221,3.718,0,7.752-3.055,10.23-5.108a39.828,39.828,0,0,0,7.141-7.418c1.273-1.867-.622-3.451-1.555-2.4-5.907,7.011-10.731,10.619-14.507,10.6-3.133-.014-4.278-2.356-4.2-5.361,0.2-7.763,6.7-17.2,12.694-17.051a1.069,1.069,0,0,1,.884,1.26c-0.049,1.9-2.7,3.16-2.779,6.136a1.62,1.62,0,0,0,1.47,1.514C336.729,64.347,339.123,59.866,339.215,56.25Zm36.341,11.457c-3.461,4.649-7.812,9.564-9.227,9.557-0.494,0-.459-1.364-0.449-1.764,0.086-3.364,1.723-7.107,3.031-10.206,0.652-1.507,1.368-3.17,2.212-5.067a12.737,12.737,0,0,0,1.39-4.192,1.458,1.458,0,0,0-1.119-1.624c-0.855-.023-1.809,1.309-2.381,2.094-4.017,5.275-8.062,10.509-12.06,15.218-1.3,1.524-4.3,5.472-5.5,5.466-0.508,0-.552-0.734-0.538-1.3a16.421,16.421,0,0,1,.951-4.947c0.753-2.183,1.7-4.441,2.508-6.535,1.489-4.021,3.575-6.966,3.664-10.437,0.039-1.534-.433-2.679-1.689-2.717-1.7-.051-3.318,1.444-4.49,2.63-3.849,3.647-8.9,10.41-11.17,13.244-0.949,1.629.106,3.448,1.548,2.645,2-2.43,5.788-7.838,7.692-10,0.917-1.037,2.424-2.871,3.75-2.758-0.842,3.227-2.579,6.686-3.814,10.244a40.312,40.312,0,0,0-2.309,10.484c-0.06,2.363.47,4.075,2.254,4.076,3.866,0,9.028-7.735,11.16-10.535,0.835-1.037,3.6-4.936,4.036-4.929a0.244,0.244,0,0,1,.053.322c-1.158,4.157-2.472,7.036-2.583,11.375-0.056,2.169,1.038,3.055,2.523,3.057a5.281,5.281,0,0,0,2.734-.876c1.871-1.193,7.084-7.211,9.4-10.043C378.559,68.384,376.853,66.7,375.556,67.708Zm21.725-12.126c0.062-2.409-1.093-5.012-3.66-5.094-4.7-.149-12.223,7.829-12.387,14.222-0.115,4.5,2.629,4.692,4.414,4.715,0.949,0.012,1.6-.058,1.47.49-1.185,4.621-5.978,10.187-9.524,10.179-1.147,0-2.022-1.274-1.971-3.258,0.069-2.7,1.685-4.428,2.229-6.8a1.756,1.756,0,0,0,.074-0.553,1.5,1.5,0,0,0-1.164-1.68c-2.059-.029-3.919,6.152-3.97,8.141-0.106,4.137,1.329,7.477,4.6,7.475,3.787,0,7.158-3.467,9.366-6.208,2.381-2.963,4.057-6.312,4.109-8.345,0.048-1.876-1.418-2.134-2.421-2.15-2.605-.04-3.9-0.612-3.838-2.972,0.147-5.743,6.538-10.362,8.239-10.314a1.64,1.64,0,0,1,1.648,1.919c-0.042,1.637-1.181,2.7-1.219,4.183a1.141,1.141,0,0,0,.843,1.345C396.272,60.925,397.223,57.835,397.281,55.581Zm3.692,2.733c-0.865-.021-2.284,1.187-3.989,4.337-3.3,6.1-5.471,12.945-5.547,15.914-0.054,2.109.6,4.14,2.762,4.14,2.387,0,8.061-4.948,14.025-12.528,0.7-.913-0.1-2.692-0.9-2.55-0.972.139-8.6,11.044-11.912,11.032-0.582,0-.806-0.392-0.788-1.094,0.082-3.193,3.4-10.31,5.264-12.84a11.129,11.129,0,0,0,2.133-4.527C402.049,59.037,401.664,58.331,400.973,58.314Z"/>
  <path id="Эллипс_1" data-name="Эллипс 1" class="cls-1" d="M418.479,29.583c4.485,0,8.121,3.016,8.121,6.736s-3.636,6.736-8.121,6.736-8.121-3.016-8.121-6.736S413.994,29.583,418.479,29.583Z"/>
  <path id="Фигура_1" data-name="Фигура 1" class="cls-1" d="M410.41,27.462c0.209,2.225,1.617,9.154,1.617,9.154l5.39-2.692S410.2,25.236,410.41,27.462Z"/>
  <path id="Фигура_1_копия" data-name="Фигура 1 копия" class="cls-1" d="M425.5,27.3c-0.209,2.265-1.617,9.316-1.617,9.316l-5.39-2.74S425.711,25.035,425.5,27.3Z"/>
</svg>
