<svg xmlns="http://www.w3.org/2000/svg" width="862" height="362" viewBox="0 0 862 362">
  <metadata><?xpacket begin="﻿" id="W5M0MpCehiHzreSzNTczkc9d"?>
<x:xmpmeta xmlns:x="adobe:ns:meta/" x:xmptk="Adobe XMP Core 5.6-c142 79.160924, 2017/07/13-01:06:39        ">
   <rdf:RDF xmlns:rdf="http://www.w3.org/1999/02/22-rdf-syntax-ns#">
      <rdf:Description rdf:about=""/>
   </rdf:RDF>
</x:xmpmeta>
                                                                                                    
                                                                                                    
                                                                                                    
                                                                                                    
                                                                                                    
                                                                                                    
                                                                                                    
                                                                                                    
                                                                                                    
                                                                                                    
                                                                                                    
                                                                                                    
                                                                                                    
                                                                                                    
                                                                                                    
                                                                                                    
                                                                                                    
                                                                                                    
                                                                                                    
                                                                                                    
                           
<?xpacket end="w"?></metadata>
<defs>
    <style>
      .cls-1 {
        stroke: #000;
        stroke-width: 2px;
        fill-rule: evenodd;
      }
    </style>
  </defs>
  <path id="Фигура_1_копия_2" data-name="Фигура 1 копия 2" class="cls-1" d="M267.4,211.209c-19.268,5.216-31.7,1.8-41.049,6.353-4.294,2.094-20.963,12.889-23.875,18.029-2.054,3.626-15.111,14.151-13.574,23.891,0.733,4.644,7.249-.7,10.1.518,1.52,0.648,3.115,4.207,3,6a8.8,8.8,0,0,1-4,7c-1.523,1.078-23.232-1-23-1,0.013,0-5.359-8.672-2-16a253.392,253.392,0,0,1,21-37c4.2-5.889,7.385-13.752,9.073-14.41,8.844-3.444,19.608-7.662,26.735-11.612,12.214-6.769,21.678-18.545,43.944-54.681,5.774-9.371,24.24,30.114,15.46,54.66C286.48,200.6,274.076,209.4,267.4,211.209Z"/>
  <path id="Фигура_1" data-name="Фигура 1" class="cls-1" d="M323.372,80.46c40.566,1.369,60.795,31.444,75.549,45.524s31.407,36.5,46.531,45.485S464.24,182.33,487.025,190.1c14.059,4.8,34.832,12.124,50.2,10.557,12.655-1.289,30.6-13.687,30.859-18.2,0.364-6.422-10.489-10.214-24.8-10.722S566.6,162.7,575.76,161.619c22.875-2.7,33.935-3.719,42.447-.439,15.271,5.885,17,5.031,23.413,13.186s12.38,8.866,18.327,13.569,7.319,13.1,3.3,22.958c-2.337,5.732-3.142,6.4-20.65,7.847S602.446,230.8,601.85,241.331c-0.243,4.3,27.92,9.821,58.531,15.07s52.994,9.228,70.261,6.811,12.384-5.812,26.851-5.024c18.6,1.014,26.742,5.523,21.333,18.942-3.544,8.792-9.394,12.186-15.21,12.874s-8.886,1.576-19.155-2.368c-10.329-3.967-51.487.432-75.382-.411-39.519-1.4-79.851-6.059-91.057-10.086s-35.058-7.741-43.274-7.572c-10.937.225-79.989,1.284-92.149-2.951-29.278-10.2-61.982-37.14-64.322-38.893-7.419-5.556-27.175-23.7-29.709-24.829s-14.094-17.564-29.921,6.793c-10.844,16.688-19.919,23.2-23.828,32.808-1.8,4.413-5.994,7.261-2.6,12.093,2.393,3.408,8.05,15.73,15.753,22.49,2.453,2.153,8.321-.118,11.027.636,2.77,0.771,2.371,4.552,4.174,5.514,4.734,2.524-2.909,9.455-2.678,9.444,0,0-15.411,2.474-23.087-2.237-8.143-5-23.218-27.359-26.078-32.154-3.7-6.206-8.442-17.146-7.625-18.758,4.278-8.443,11.467-18.764,14.132-26.443,4.567-13.158,13.441-19.613-2.218-59-7.722-19.421-7.447-28.107-1.383-39.558,1.3-2.448,4.74-4.025,4.662-6.759-0.08-2.765-81.649-9.993-135.426-17.769C69.411,79.283,14.135,48.772,18.745,38.185c3.533-8.113,49.478,22.521,126.912,34.3C208.9,82.1,296.617,80.432,299,80,304.3,79.039,317.278,80.254,323.372,80.46Z"/>
</svg>
